<svg xmlns="http://www.w3.org/2000/svg" xmlns:xlink="http://www.w3.org/1999/xlink" version="1.1" id="Layer_1" x="0px" y="0px" width="100%" viewBox="0 0 1091 341" enable-background="new 0 0 1091 341" xml:space="preserve" transform="matrix(1, 0, 0, 1, 0, 0)">
<path fill="#191c24" opacity="1.000000" stroke="none" d=" M722.000000,342.000000   C481.333344,342.000000 241.166672,342.000000 1.000000,342.000000   C1.000000,228.333328 1.000000,114.666664 1.000000,1.000000   C364.666656,1.000000 728.333313,1.000000 1092.000000,1.000000   C1092.000000,114.666664 1092.000000,228.333328 1092.000000,342.000000   C968.833313,342.000000 845.666687,342.000000 722.000000,342.000000  M163.124023,61.011391   C161.342972,61.380177 159.555801,61.721764 157.781891,62.122215   C147.170319,64.517731 137.301208,68.468063 128.152481,76.010078   C111.507912,76.010078 94.863342,76.010078 78.057381,76.010078   C77.197174,73.819618 76.390762,71.820694 75.624603,69.806458   C70.175949,55.481941 64.512970,41.232918 59.409107,26.786432   C57.537247,21.488140 54.730701,18.689756 49.135288,17.492914   C37.598202,15.025165 26.191387,11.927326 14.781543,8.898240   C11.213188,7.950914 7.861340,7.427139 6.640955,11.742901   C5.412685,16.086546 8.553435,17.482698 12.123425,18.379738   C22.764791,21.053616 33.341434,23.995909 44.022678,26.494247   C47.668430,27.346983 49.540371,29.008413 50.888744,32.570763   C72.649689,90.062386 94.506866,147.518036 116.592125,204.885635   C118.388039,209.550629 117.785355,212.166031 114.156288,215.444824   C104.762627,223.931778 95.569374,232.690857 89.628181,244.178925   C82.351967,258.248413 84.908600,267.247131 98.364639,274.731232   C90.917824,290.221069 91.971199,300.627716 101.832901,308.995667   C109.486328,315.489838 122.388344,316.747986 130.156738,310.637695   C134.273224,307.399902 137.746796,302.666962 139.999405,297.895508   C143.405930,290.679810 141.102005,283.343170 137.118332,276.232727   C171.391739,276.232727 205.047485,276.232727 238.818832,276.232727   C233.019409,291.487762 234.708237,301.418701 244.216858,308.963196   C252.323425,315.395233 264.189697,315.863129 272.684937,310.085724   C283.158295,302.963043 285.181915,293.546661 279.828278,276.139709   C282.829224,275.986450 285.947815,276.391846 288.625031,275.488800   C290.364136,274.902191 292.747437,272.201385 292.525513,270.819946   C292.232544,268.996155 289.870789,267.220398 288.007416,266.042419   C286.931305,265.362152 285.085510,265.890015 283.586151,265.889954   C226.601318,265.888306 169.616440,265.916656 112.631760,265.827118   C108.685944,265.820923 104.692917,265.180725 100.809593,264.399292   C96.622292,263.556763 94.837677,260.354736 96.014053,256.512878   C97.407021,251.963654 98.843491,246.954330 101.806946,243.452652   C109.204468,234.711487 117.421638,226.656342 125.468109,218.481674   C126.476379,217.457336 128.404617,217.057190 129.961334,216.895767   C158.617386,213.924255 187.276474,210.979294 215.947861,208.160110   C223.921143,207.376099 231.936050,207.015076 239.931854,206.460007   C241.829895,206.304367 243.790939,205.330231 245.830688,205.120117   C260.406921,203.618683 274.996338,202.242081 289.588135,200.896851   C293.869812,200.502106 296.001587,198.472977 296.611725,194.049469   C301.688293,157.245911 306.937347,120.466179 312.091431,83.673241   C312.884399,78.012474 311.121704,76.115967 305.299927,76.060410   C295.973480,75.971397 286.646729,75.915382 277.281158,75.001213   C276.364441,64.119232 271.607391,55.091209 262.934631,48.681164   C257.257324,44.485043 250.984116,40.736118 244.440887,38.140301   C227.331924,31.352858 209.928528,25.307449 192.641357,18.969376   C188.789230,17.557043 184.932343,16.157703 180.615723,14.583979   C174.937088,30.329117 169.424530,45.613731 163.124023,61.011391  M697.544067,223.702469   C696.749695,209.275421 694.197449,212.756531 707.881470,204.596771   C709.019165,203.918350 710.300659,203.483688 711.452820,202.826279   C714.604126,201.028152 716.737549,202.195023 717.507935,205.359207   C718.803833,210.682022 719.984863,216.064270 720.707703,221.488998   C722.532837,235.185562 723.846069,248.953186 725.836182,262.623657   C726.734375,268.793732 731.939636,271.813385 738.059937,270.760986   C744.344604,269.680359 747.865417,265.454376 747.047546,259.178925   C744.486755,239.530594 742.005432,219.864258 738.932922,200.292862   C736.776978,186.559769 726.168335,179.042908 712.557373,181.626221   C706.058044,182.859787 699.901855,185.901260 693.114014,188.291534   C688.662903,182.342102 681.532410,178.719345 673.687622,181.085861   C666.578491,183.230484 660.262329,188.003738 653.925476,191.439636   C653.941345,191.140045 654.024414,189.825150 654.078552,188.509079   C654.297913,183.174667 650.718201,178.284531 645.656250,176.990265   C640.553650,175.685593 636.874268,177.739853 634.355957,183.515564   C633.497375,185.484894 632.442810,187.622299 632.453003,189.678101   C632.566406,212.627914 632.570618,235.586548 633.317078,258.519592   C633.525757,264.931061 638.194458,267.575684 644.580322,267.065521   C650.835022,266.565857 654.202698,263.156738 654.384827,256.766327   C654.631592,248.110672 655.186768,239.419907 654.672424,230.800125   C654.246582,223.662659 656.584290,218.218887 661.612000,213.587418   C665.648621,209.868912 669.729858,206.198715 674.590759,201.780411   C675.061951,204.919556 675.377625,206.365646 675.483398,207.826950   C676.817871,226.256744 678.167603,244.685669 679.402954,263.122223   C679.724426,267.920685 681.660706,271.422455 686.266113,273.127869   C694.037292,276.005554 701.540222,270.913239 701.051208,262.410858   C700.325256,249.788391 698.804077,237.211670 697.544067,223.702469  M507.090729,255.094498   C507.185669,255.754013 507.253998,256.418610 507.379639,257.072235   C508.859741,264.774231 512.213745,267.626617 519.110168,267.060883   C525.823853,266.510162 528.724426,263.069397 528.903564,255.229874   C529.128113,245.403610 529.247986,235.574982 529.455078,225.748276   C529.486389,224.264771 529.231506,222.419724 529.983093,221.364258   C535.095764,214.184158 540.828552,207.576416 549.023071,202.616608   C549.399719,204.506378 549.783325,205.740631 549.875122,206.996262   C551.235718,225.597198 552.598267,244.198196 553.869080,262.805389   C554.382507,270.324005 559.856262,275.031647 566.833496,273.720947   C572.509949,272.654663 576.056824,268.577545 575.607117,262.224670   C574.737244,249.936417 573.354004,237.683929 572.145325,225.420380   C570.677246,210.524506 570.904419,210.090149 584.432190,203.506638   C584.731140,203.361145 585.046143,203.243515 585.331116,203.074814   C589.077881,200.856842 591.494385,202.209625 592.301331,206.132584   C593.640869,212.644669 594.838989,219.200943 595.719910,225.788986   C597.353088,238.003265 598.465332,250.291275 600.292358,262.473907   C601.232605,268.743439 606.259583,271.751343 612.411743,270.778107   C618.686462,269.785492 622.395264,265.497559 621.593384,259.324249   C619.018616,239.503174 616.522400,219.663086 613.391479,199.926208   C611.296936,186.722427 600.813843,179.226440 587.668701,181.541092   C580.985779,182.717834 574.635925,185.786240 567.496643,188.217026   C563.304443,182.309662 556.137756,178.794388 548.280518,181.070923   C541.275085,183.100647 535.035767,187.774612 528.664612,191.171707   C528.664612,190.787674 528.658325,189.366058 528.665771,187.944504   C528.691467,183.014008 524.906250,178.172943 520.086731,176.979309   C515.142395,175.754761 511.183716,177.604218 509.111053,183.160843   C507.567505,187.298965 506.345367,191.847794 506.335052,196.216904   C506.289612,215.536942 506.734253,234.858139 507.090729,255.094498  M398.421143,179.536087   C406.644318,180.893143 412.420776,177.349106 412.664093,169.921814   C412.858337,163.991302 412.366302,157.895416 411.130096,152.096527   C409.528687,144.584534 403.008850,142.137726 395.992401,145.285385   C393.730560,146.300064 390.934418,146.889175 388.499878,146.618637   C378.858032,145.547119 369.641144,146.994827 361.702637,152.395538   C339.126129,167.754639 323.900787,188.506866 319.396698,215.769394   C315.280731,240.682861 330.381256,262.032684 354.409882,265.408081   C374.919861,268.289185 391.706757,259.352570 406.293610,245.821548   C409.807861,242.561646 409.495972,237.433548 406.602997,233.431534   C403.541412,229.196304 398.502747,227.527542 393.821014,229.760452   C390.239899,231.468445 387.069061,234.017044 383.553925,235.887680   C378.443451,238.607361 373.416443,241.816238 367.946167,243.459061   C356.156952,246.999588 345.365234,241.655243 342.231476,230.927032   C341.059601,226.915268 340.738281,222.261795 341.465668,218.155350   C344.959045,198.433411 356.460236,183.674683 371.752441,171.533325   C373.526031,170.125198 375.809357,169.185837 378.004761,168.514374   C384.890076,166.408539 388.327393,167.966843 392.097168,173.781998   C393.477905,175.911926 395.799652,177.431854 398.421143,179.536087  M1031.330566,238.896927   C1041.806396,234.206345 1052.362061,229.682968 1062.721069,224.747223   C1067.190186,222.617783 1071.668579,220.125031 1075.418701,216.943848   C1084.760010,209.019806 1083.967163,195.864334 1074.126099,188.589493   C1058.630371,177.134598 1030.403320,180.106110 1017.791260,194.614273   C1008.060303,205.808105 1004.728638,219.126434 1005.447021,233.625610   C1006.087585,246.552826 1012.240906,256.362610 1023.802795,261.932587   C1041.789062,270.597534 1059.958008,269.906647 1077.462036,260.380463   C1080.701782,258.617310 1083.602295,255.092514 1085.119751,251.693481   C1086.175049,249.329330 1085.587891,244.905472 1083.912354,243.026489   C1082.278198,241.193756 1078.316895,240.865158 1075.399902,240.928238   C1073.077026,240.978500 1070.629517,242.343750 1068.512939,243.592407   C1060.510376,248.313339 1051.825195,249.548111 1042.960083,247.854843   C1038.548340,247.012192 1034.416992,244.488525 1030.290771,242.457275   C1028.330444,241.492294 1028.144043,240.045197 1031.330566,238.896927  M754.345459,232.293488   C754.762085,245.588867 760.575623,255.910965 772.493286,261.768036   C790.590759,270.662170 808.910400,269.965088 826.563843,260.310547   C829.792114,258.545074 832.833862,255.036072 834.235474,251.623032   C837.219971,244.355545 831.961731,238.924301 824.304565,240.838791   C821.764160,241.473953 819.266541,242.585236 816.983093,243.888504   C808.750427,248.587280 799.859070,249.591614 790.881165,247.695694   C786.093201,246.684586 781.693115,243.836945 777.117920,241.818192   C777.265320,241.265839 777.412659,240.713486 777.559998,240.161118   C787.994263,235.491486 798.525269,231.022873 808.823853,226.071014   C814.330383,223.423279 819.968994,220.579987 824.610474,216.702576   C833.810425,209.017181 832.893982,195.948959 823.294434,188.719635   C807.805847,177.055313 779.313110,180.092361 766.616638,194.807159   C757.554260,205.310226 754.251770,217.784378 754.345459,232.293488  M487.623596,250.107269   C496.104462,234.492844 497.087158,218.357300 490.245850,202.020493   C486.267487,192.520203 479.395630,185.323242 468.985779,183.283432   C453.315887,180.212967 439.574890,184.208710 429.099182,196.838867   C420.345398,207.392990 417.198792,219.697739 418.499359,233.227982   C420.161346,250.518402 431.076080,263.983673 446.424133,267.734528   C462.625397,271.693878 477.221130,265.611053 487.623596,250.107269  M942.042603,264.565735   C959.394958,272.750305 975.427429,269.018433 990.606812,258.936737   C996.069458,255.308578 997.147461,251.170807 994.574280,246.657028   C991.694214,241.604965 986.734192,240.202377 980.878784,242.762054   C976.469421,244.689636 972.201233,247.172958 967.600159,248.377274   C959.781860,250.423691 952.225464,249.159012 946.330505,243.182831   C940.725403,237.500427 940.890198,230.387863 943.508423,223.561096   C945.633606,218.019775 948.379700,212.583908 951.677124,207.654221   C957.408203,199.086151 965.546265,197.597717 974.661865,202.731033   C975.963928,203.464249 977.156250,204.389786 978.437134,205.163727   C983.934631,208.485489 989.278564,207.645538 992.532593,202.974289   C995.818604,198.257126 995.010742,192.524887 989.228210,189.320526   C982.922058,185.825989 976.023987,183.063980 969.061340,181.166138   C957.780334,178.091232 947.998108,181.908096 940.028015,190.132370   C931.031250,199.416031 924.873535,210.375687 922.298889,223.118851   C918.671204,241.073349 925.374023,255.306152 942.042603,264.565735  M868.602478,225.616501   C868.586060,213.300003 880.233337,202.164169 893.855835,201.769669   C894.018250,204.389114 894.131531,207.026321 894.354675,209.654205   C894.899658,216.074753 897.413452,218.802933 903.021179,219.154587   C909.508301,219.561371 914.004028,216.891907 914.537354,210.807785   C915.095032,204.445923 914.936279,197.815369 913.740723,191.560287   C912.386963,184.477142 907.159546,181.150833 899.916138,181.016418   C890.180115,180.835770 881.191956,183.410568 872.888733,188.453705   C871.547974,189.268005 870.213989,190.093521 869.848267,190.317886   C866.892273,187.485168 864.958801,184.430588 862.214783,183.232956   C854.642395,179.927902 848.030945,184.832199 847.940979,193.633698   C847.723206,214.931778 847.686279,236.232025 847.655640,257.531525   C847.644531,265.238617 851.026001,269.136261 857.487366,269.242126   C864.521118,269.357361 868.581604,265.183319 868.628784,257.538605   C868.692444,247.221725 868.618774,236.904007 868.602478,225.616501  z"/>
<path fill="#ffffff" opacity="1.000000" stroke="none" d=" M277.320099,75.845428   C286.646729,75.915382 295.973480,75.971397 305.299927,76.060410   C311.121704,76.115967 312.884399,78.012474 312.091431,83.673241   C306.937347,120.466179 301.688293,157.245911 296.611725,194.049469   C296.001587,198.472977 293.869812,200.502106 289.588135,200.896851   C274.996338,202.242081 260.406921,203.618683 245.830688,205.120117   C243.790939,205.330231 241.829895,206.304367 239.931854,206.460007   C231.936050,207.015076 223.921143,207.376099 215.947861,208.160110   C187.276474,210.979294 158.617386,213.924255 129.961334,216.895767   C128.404617,217.057190 126.476379,217.457336 125.468109,218.481674   C117.421638,226.656342 109.204468,234.711487 101.806946,243.452652   C98.843491,246.954330 97.407021,251.963654 96.014053,256.512878   C94.837677,260.354736 96.622292,263.556763 100.809593,264.399292   C104.692917,265.180725 108.685944,265.820923 112.631760,265.827118   C169.616440,265.916656 226.601318,265.888306 283.586151,265.889954   C285.085510,265.890015 286.931305,265.362152 288.007416,266.042419   C289.870789,267.220398 292.232544,268.996155 292.525513,270.819946   C292.747437,272.201385 290.364136,274.902191 288.625031,275.488800   C285.947815,276.391846 282.829224,275.986450 279.828278,276.139709   C285.181915,293.546661 283.158295,302.963043 272.684937,310.085724   C264.189697,315.863129 252.323425,315.395233 244.216858,308.963196   C234.708237,301.418701 233.019409,291.487762 238.818832,276.232727   C205.047485,276.232727 171.391739,276.232727 137.118332,276.232727   C141.102005,283.343170 143.405930,290.679810 139.999405,297.895508   C137.746796,302.666962 134.273224,307.399902 130.156738,310.637695   C122.388344,316.747986 109.486328,315.489838 101.832901,308.995667   C91.971199,300.627716 90.917824,290.221069 98.364639,274.731232   C84.908600,267.247131 82.351967,258.248413 89.628181,244.178925   C95.569374,232.690857 104.762627,223.931778 114.156288,215.444824   C117.785355,212.166031 118.388039,209.550629 116.592125,204.885635   C94.506866,147.518036 72.649689,90.062386 50.888744,32.570763   C49.540371,29.008413 47.668430,27.346983 44.022678,26.494247   C33.341434,23.995909 22.764791,21.053616 12.123425,18.379738   C8.553435,17.482698 5.412685,16.086546 6.640955,11.742901   C7.861340,7.427139 11.213188,7.950914 14.781543,8.898240   C26.191387,11.927326 37.598202,15.025165 49.135288,17.492914   C54.730701,18.689756 57.537247,21.488140 59.409107,26.786432   C64.512970,41.232918 70.175949,55.481941 75.624603,69.806458   C76.390762,71.820694 77.197174,73.819618 78.057381,76.010078   C94.863342,76.010078 111.507912,76.010078 129.074646,76.029602   C156.007248,75.992325 182.017670,75.935524 208.491760,75.946106   C220.966202,76.006866 232.976990,76.000244 245.456696,76.019974   C256.390442,75.979355 266.855255,75.912392 277.320099,75.845428  M224.253021,101.214302   C224.253021,96.343636 224.253021,91.472977 224.253021,86.251877   C220.309616,86.251877 216.760437,86.251877 212.260635,86.092194   C206.691116,86.092194 201.121582,86.092194 195.319580,86.092194   C195.319580,97.415833 195.319580,108.113503 195.319580,119.710938   C203.221817,119.710938 210.946304,119.710938 219.483566,119.852386   C223.074982,119.459282 224.342361,117.557632 224.038010,113.914116   C223.712677,110.019348 224.013321,106.072296 224.253021,101.214302  M211.752533,199.096466   C213.486694,198.715698 215.203964,198.205399 216.957977,197.976929   C223.942169,197.067245 223.946411,197.099762 224.162903,189.098419   C224.181442,185.144379 223.960541,181.170502 224.286179,177.241928   C224.608765,173.350479 222.954651,172.549957 219.425339,172.617050   C212.188217,172.754623 204.942734,172.452942 197.194473,171.985565   C193.430466,172.257828 193.517212,174.383392 194.969589,177.968445   C195.116455,184.140594 195.263306,190.312759 195.170593,197.246994   C194.549088,199.928085 195.995834,200.288742 198.183670,200.065765   C202.425827,199.633408 206.678986,199.309174 211.752533,199.096466  M156.036453,143.818527   C156.036148,148.549500 156.206268,153.288544 155.982529,158.008926   C155.797821,161.905426 157.346069,163.482010 162.077530,162.892822   C169.663269,162.892822 177.249008,162.892822 184.887985,162.892822   C184.887985,152.072342 184.887985,141.956436 185.096649,131.059464   C184.615326,130.472855 184.139694,129.380096 183.651840,129.374634   C174.559204,129.272476 165.465134,129.299637 156.105347,129.299637   C156.105347,134.258865 156.105347,138.562027 156.036453,143.818527  M234.960709,192.973373   C235.646271,197.774857 238.436356,196.044281 241.889267,195.294113   C248.934570,194.769089 255.979889,194.244080 263.046692,193.717453   C263.046692,186.403244 263.046692,179.713303 263.046692,172.816101   C257.925201,172.816101 253.154633,172.816101 247.837601,172.496902   C243.410446,173.200562 238.983292,173.904205 233.832230,174.722916   C234.210846,180.598190 234.584351,186.394287 234.960709,192.973373  M156.042511,188.773926   C156.042511,193.701447 156.042511,198.628967 156.042511,204.057541   C165.978836,203.109985 175.312546,202.219910 184.778778,201.317184   C184.778778,195.693359 184.778778,190.589233 185.050674,184.653717   C185.050674,180.749420 185.050674,176.845108 185.050674,172.630981   C179.387421,172.630981 174.421661,172.630981 169.455902,172.630981   C154.782471,172.630981 154.782471,172.630981 156.042511,188.773926  M121.876053,172.720749   C120.299904,172.720749 118.723755,172.720749 116.920227,172.720749   C116.920227,174.853561 116.517975,176.474228 116.984818,177.785446   C120.277161,187.032623 123.716393,196.228333 127.225479,205.395798   C127.491837,206.091644 128.735718,206.967789 129.395172,206.871307   C134.860031,206.071671 140.294250,205.062546 145.956741,203.187607   C145.982620,195.030243 145.997482,186.872833 146.039093,178.715561   C146.059296,174.753998 144.529526,172.501343 140.162231,172.671310   C134.348709,172.897537 128.525635,172.878448 121.876053,172.720749  M122.735214,162.870621   C129.329254,162.870621 135.923279,162.870621 141.819122,162.870621   C147.280060,151.959869 146.096313,141.163635 145.801651,129.592972   C142.410339,131.470444 139.841537,132.892548 137.534683,133.369247   C137.809265,132.151779 138.083862,130.934311 138.392654,129.565186   C131.050247,129.565186 124.156227,129.565186 117.128250,129.565186   C117.128250,140.775696 117.128250,151.662537 117.128250,162.898987   C118.882332,162.817413 120.335541,162.749817 122.735214,162.870621  M116.892471,101.476395   C116.892471,107.375603 116.892471,113.274811 116.892471,119.614044   C125.071205,119.614044 132.665726,119.766418 140.241684,119.459724   C141.463272,119.410278 143.105606,117.530090 143.698029,116.133347   C147.740555,106.602608 145.750153,96.584579 145.722198,86.727707   C145.721817,86.590256 145.191025,86.454308 144.019699,86.090080   C139.402405,86.087677 134.785110,86.083519 130.167816,86.083214   C116.267906,86.082298 116.267906,86.082878 116.892471,101.476395  M204.294922,162.856079   C210.739197,162.856079 217.183472,162.856079 224.993240,162.856079   C224.065475,152.192673 223.302200,142.165695 222.169647,132.180588   C222.044998,131.081589 219.835541,129.439606 218.539459,129.387726   C212.900787,129.162018 207.242310,129.431686 200.800842,129.316483   C199.044556,129.316483 197.288284,129.316483 195.473969,129.316483   C195.473969,140.790527 195.473969,151.736374 195.473969,163.008972   C198.372589,162.873764 200.830505,162.759125 204.294922,162.856079  M237.467926,129.084412   C236.637451,130.641083 235.143936,132.174988 235.089584,133.758316   C234.834793,141.181076 234.974976,148.617432 234.976089,156.048920   C234.977173,163.156311 234.978256,163.156311 243.272247,162.860840   C249.867950,162.860840 256.463654,162.860840 263.018311,162.860840   C263.018311,151.384811 263.018311,140.518372 263.018311,129.148636   C254.522781,129.148636 246.409271,129.148636 237.467926,129.084412  M234.959671,100.925880   C234.965439,105.753670 234.816315,110.590065 235.084045,115.403290   C235.152405,116.632278 236.399475,118.669159 237.348114,118.821556   C241.062943,119.418335 244.875092,119.409401 249.492142,119.546906   C254.067245,119.546906 258.642365,119.546906 263.726074,119.546906   C263.434418,116.661606 263.205811,114.399963 263.019562,111.184448   C263.016815,104.192276 262.871338,97.195976 263.073730,90.209747   C263.169861,86.892303 261.982605,85.815598 258.749786,85.968834   C253.766403,86.205017 248.766403,86.090324 242.891052,86.062866   C240.123352,86.062866 237.355637,86.062866 233.683594,86.062866   C234.155518,91.048943 234.578552,95.518555 234.959671,100.925880  M171.360168,119.641838   C175.804993,119.641838 180.249817,119.641838 184.939026,119.641838   C184.939026,116.700623 184.939026,114.399490 184.992828,111.150116   C184.993393,104.018494 184.907623,96.885300 185.037903,89.756050   C185.088577,86.983871 184.133621,85.921036 181.310593,85.975784   C174.347443,86.110817 167.378418,86.105064 160.414825,85.982048   C157.230743,85.925797 155.917282,87.161484 155.978516,90.374794   C156.101730,96.840637 156.012894,103.310516 156.012527,109.778725   C156.012039,118.679504 156.013535,118.654594 164.650879,119.045143   C166.607956,119.133644 168.554245,119.460915 171.360168,119.641838  M300.740570,86.164909   C293.753082,86.131226 286.762939,85.990044 279.780548,86.162270   C278.513092,86.193535 276.583374,87.214211 276.134827,88.275108   C271.908112,98.271568 273.553589,108.754692 273.361450,119.616570   C280.882660,119.616570 287.835022,119.721245 294.776337,119.491814   C295.704895,119.461121 297.220184,117.836426 297.376373,116.787888   C298.870209,106.760750 300.129791,96.698723 300.740570,86.164909  M273.491058,161.929443   C279.132568,162.393906 284.774078,162.858368 290.869934,163.360245   C292.294281,153.242523 293.615631,143.907852 294.915985,134.570236   C295.137543,132.979233 295.269073,131.375687 295.472107,129.502106   C287.974030,129.502106 280.934448,129.502106 273.324982,129.502106   C273.324982,140.175018 273.324982,150.598328 273.491058,161.929443  M108.737053,279.107391   C102.059738,285.493530 101.275696,293.466309 106.694824,299.874420   C111.118431,305.105316 120.043785,306.085175 125.695778,301.960388   C131.788437,297.514008 133.299530,288.675354 129.040909,282.394012   C124.564323,275.791168 116.883110,274.333801 108.737053,279.107391  M106.938202,101.502563   C106.938202,96.432976 106.938202,91.363388 106.938202,86.268021   C98.279480,86.268021 90.379425,86.268021 81.900269,86.268021   C85.951775,96.995529 89.827484,107.372391 93.849434,117.692261   C94.176819,118.532272 95.472961,119.470680 96.371765,119.527466   C99.780426,119.742844 103.210823,119.614174 106.938194,119.614174   C106.938194,113.419586 106.938194,107.959549 106.938202,101.502563  M250.529144,278.894806   C242.327179,286.353973 243.695679,298.580261 253.208557,302.832886   C259.443115,305.619965 266.718842,303.797455 270.688934,298.454193   C274.502106,293.322144 274.249084,285.576294 270.113495,280.838593   C265.288849,275.311523 258.309265,274.426971 250.529144,278.894806  M276.565979,192.178696   C279.998413,191.792725 283.430847,191.406738 286.979187,191.007721   C287.840240,184.680740 288.633636,178.850815 289.448914,172.860184   C283.725403,172.860184 278.791199,172.860184 273.328979,172.860184   C273.328979,178.898941 273.258789,184.682281 273.430298,190.458435   C273.448822,191.081619 274.869507,191.663162 276.565979,192.178696  M107.036285,143.224838   C107.036285,138.662323 107.036285,134.099808 107.036285,129.579254   C103.783112,129.579254 101.290359,129.579254 98.248718,129.579254   C100.909973,136.557098 103.359215,142.979019 105.808456,149.400940   C106.217728,149.271118 106.626999,149.141296 107.036270,149.011475   C107.036270,147.382965 107.036270,145.754440 107.036285,143.224838  z"/>
<path fill="#ffffff" opacity="1.000000" stroke="none" d=" M697.582703,224.158966   C698.804077,237.211670 700.325256,249.788391 701.051208,262.410858   C701.540222,270.913239 694.037292,276.005554 686.266113,273.127869   C681.660706,271.422455 679.724426,267.920685 679.402954,263.122223   C678.167603,244.685669 676.817871,226.256744 675.483398,207.826950   C675.377625,206.365646 675.061951,204.919556 674.590759,201.780411   C669.729858,206.198715 665.648621,209.868912 661.612000,213.587418   C656.584290,218.218887 654.246582,223.662659 654.672424,230.800125   C655.186768,239.419907 654.631592,248.110672 654.384827,256.766327   C654.202698,263.156738 650.835022,266.565857 644.580322,267.065521   C638.194458,267.575684 633.525757,264.931061 633.317078,258.519592   C632.570618,235.586548 632.566406,212.627914 632.453003,189.678101   C632.442810,187.622299 633.497375,185.484894 634.355957,183.515564   C636.874268,177.739853 640.553650,175.685593 645.656250,176.990265   C650.718201,178.284531 654.297913,183.174667 654.078552,188.509079   C654.024414,189.825150 653.941345,191.140045 653.925476,191.439636   C660.262329,188.003738 666.578491,183.230484 673.687622,181.085861   C681.532410,178.719345 688.662903,182.342102 693.114014,188.291534   C699.901855,185.901260 706.058044,182.859787 712.557373,181.626221   C726.168335,179.042908 736.776978,186.559769 738.932922,200.292862   C742.005432,219.864258 744.486755,239.530594 747.047546,259.178925   C747.865417,265.454376 744.344604,269.680359 738.059937,270.760986   C731.939636,271.813385 726.734375,268.793732 725.836182,262.623657   C723.846069,248.953186 722.532837,235.185562 720.707703,221.488998   C719.984863,216.064270 718.803833,210.682022 717.507935,205.359207   C716.737549,202.195023 714.604126,201.028152 711.452820,202.826279   C710.300659,203.483688 709.019165,203.918350 707.881470,204.596771   C694.197449,212.756531 696.749695,209.275421 697.582703,224.158966  z"/>
<path fill="#ffffff" opacity="1.000000" stroke="none" d=" M507.046082,254.636703   C506.734253,234.858139 506.289612,215.536942 506.335052,196.216904   C506.345367,191.847794 507.567505,187.298965 509.111053,183.160843   C511.183716,177.604218 515.142395,175.754761 520.086731,176.979309   C524.906250,178.172943 528.691467,183.014008 528.665771,187.944504   C528.658325,189.366058 528.664612,190.787674 528.664612,191.171707   C535.035767,187.774612 541.275085,183.100647 548.280518,181.070923   C556.137756,178.794388 563.304443,182.309662 567.496643,188.217026   C574.635925,185.786240 580.985779,182.717834 587.668701,181.541092   C600.813843,179.226440 611.296936,186.722427 613.391479,199.926208   C616.522400,219.663086 619.018616,239.503174 621.593384,259.324249   C622.395264,265.497559 618.686462,269.785492 612.411743,270.778107   C606.259583,271.751343 601.232605,268.743439 600.292358,262.473907   C598.465332,250.291275 597.353088,238.003265 595.719910,225.788986   C594.838989,219.200943 593.640869,212.644669 592.301331,206.132584   C591.494385,202.209625 589.077881,200.856842 585.331116,203.074814   C585.046143,203.243515 584.731140,203.361145 584.432190,203.506638   C570.904419,210.090149 570.677246,210.524506 572.145325,225.420380   C573.354004,237.683929 574.737244,249.936417 575.607117,262.224670   C576.056824,268.577545 572.509949,272.654663 566.833496,273.720947   C559.856262,275.031647 554.382507,270.324005 553.869080,262.805389   C552.598267,244.198196 551.235718,225.597198 549.875122,206.996262   C549.783325,205.740631 549.399719,204.506378 549.023071,202.616608   C540.828552,207.576416 535.095764,214.184158 529.983093,221.364258   C529.231506,222.419724 529.486389,224.264771 529.455078,225.748276   C529.247986,235.574982 529.128113,245.403610 528.903564,255.229874   C528.724426,263.069397 525.823853,266.510162 519.110168,267.060883   C512.213745,267.626617 508.859741,264.774231 507.379639,257.072235   C507.253998,256.418610 507.185669,255.754013 507.046082,254.636703  z"/>
<path fill="#FF4651" opacity="1.000000" stroke="none" d=" M398.056641,179.383057   C395.799652,177.431854 393.477905,175.911926 392.097168,173.781998   C388.327393,167.966843 384.890076,166.408539 378.004761,168.514374   C375.809357,169.185837 373.526031,170.125198 371.752441,171.533325   C356.460236,183.674683 344.959045,198.433411 341.465668,218.155350   C340.738281,222.261795 341.059601,226.915268 342.231476,230.927032   C345.365234,241.655243 356.156952,246.999588 367.946167,243.459061   C373.416443,241.816238 378.443451,238.607361 383.553925,235.887680   C387.069061,234.017044 390.239899,231.468445 393.821014,229.760452   C398.502747,227.527542 403.541412,229.196304 406.602997,233.431534   C409.495972,237.433548 409.807861,242.561646 406.293610,245.821548   C391.706757,259.352570 374.919861,268.289185 354.409882,265.408081   C330.381256,262.032684 315.280731,240.682861 319.396698,215.769394   C323.900787,188.506866 339.126129,167.754639 361.702637,152.395538   C369.641144,146.994827 378.858032,145.547119 388.499878,146.618637   C390.934418,146.889175 393.730560,146.300064 395.992401,145.285385   C403.008850,142.137726 409.528687,144.584534 411.130096,152.096527   C412.366302,157.895416 412.858337,163.991302 412.664093,169.921814   C412.420776,177.349106 406.644318,180.893143 398.056641,179.383057  z"/>
<path fill="#ffffff" opacity="1.000000" stroke="none" d=" M1030.962891,239.027588   C1028.144043,240.045197 1028.330444,241.492294 1030.290771,242.457275   C1034.416992,244.488525 1038.548340,247.012192 1042.960083,247.854843   C1051.825195,249.548111 1060.510376,248.313339 1068.512939,243.592407   C1070.629517,242.343750 1073.077026,240.978500 1075.399902,240.928238   C1078.316895,240.865158 1082.278198,241.193756 1083.912354,243.026489   C1085.587891,244.905472 1086.175049,249.329330 1085.119751,251.693481   C1083.602295,255.092514 1080.701782,258.617310 1077.462036,260.380463   C1059.958008,269.906647 1041.789062,270.597534 1023.802795,261.932587   C1012.240906,256.362610 1006.087585,246.552826 1005.447021,233.625610   C1004.728638,219.126434 1008.060303,205.808105 1017.791260,194.614273   C1030.403320,180.106110 1058.630371,177.134598 1074.126099,188.589493   C1083.967163,195.864334 1084.760010,209.019806 1075.418701,216.943848   C1071.668579,220.125031 1067.190186,222.617783 1062.721069,224.747223   C1052.362061,229.682968 1041.806396,234.206345 1030.962891,239.027588  M1035.741333,216.248703   C1044.039917,212.372543 1052.338501,208.496368 1061.708862,204.119583   C1044.193115,196.449356 1027.522339,204.767929 1027.645020,219.687195   C1030.147339,218.643402 1032.597656,217.621262 1035.741333,216.248703  z"/>
<path fill="#ffffff" opacity="1.000000" stroke="none" d=" M754.327271,231.833466   C754.251770,217.784378 757.554260,205.310226 766.616638,194.807159   C779.313110,180.092361 807.805847,177.055313 823.294434,188.719635   C832.893982,195.948959 833.810425,209.017181 824.610474,216.702576   C819.968994,220.579987 814.330383,223.423279 808.823853,226.071014   C798.525269,231.022873 787.994263,235.491486 777.559998,240.161118   C777.412659,240.713486 777.265320,241.265839 777.117920,241.818192   C781.693115,243.836945 786.093201,246.684586 790.881165,247.695694   C799.859070,249.591614 808.750427,248.587280 816.983093,243.888504   C819.266541,242.585236 821.764160,241.473953 824.304565,240.838791   C831.961731,238.924301 837.219971,244.355545 834.235474,251.623032   C832.833862,255.036072 829.792114,258.545074 826.563843,260.310547   C808.910400,269.965088 790.590759,270.662170 772.493286,261.768036   C760.575623,255.910965 754.762085,245.588867 754.327271,231.833466  M778.914429,218.834534   C789.148743,214.096344 799.983765,210.522430 809.949402,203.486404   C807.595154,202.710770 806.202454,202.175903 804.769287,201.791580   C791.556946,198.248337 781.269348,203.639679 776.774658,216.526489   C776.420044,217.543213 774.175354,220.113113 778.914429,218.834534  z"/>
<path fill="#ffffff" opacity="1.000000" stroke="none" d=" M487.431091,250.416122   C477.221130,265.611053 462.625397,271.693878 446.424133,267.734528   C431.076080,263.983673 420.161346,250.518402 418.499359,233.227982   C417.198792,219.697739 420.345398,207.392990 429.099182,196.838867   C439.574890,184.208710 453.315887,180.212967 468.985779,183.283432   C479.395630,185.323242 486.267487,192.520203 490.245850,202.020493   C497.087158,218.357300 496.104462,234.492844 487.431091,250.416122  M440.111572,231.179474   C441.442932,241.426788 446.272675,247.183868 454.170471,247.937820   C462.328857,248.716644 470.192322,243.242432 472.412323,234.717880   C474.426270,226.984589 474.069855,219.144989 471.438660,211.591919   C469.059174,204.761322 463.216614,201.330780 456.431488,203.698257   C452.316467,205.134048 448.254639,208.126740 445.409729,211.474411   C440.965576,216.704010 439.992798,223.486877 440.111572,231.179474  z"/>
<path fill="#ffffff" opacity="1.000000" stroke="none" d=" M941.716064,264.381927   C925.374023,255.306152 918.671204,241.073349 922.298889,223.118851   C924.873535,210.375687 931.031250,199.416031 940.028015,190.132370   C947.998108,181.908096 957.780334,178.091232 969.061340,181.166138   C976.023987,183.063980 982.922058,185.825989 989.228210,189.320526   C995.010742,192.524887 995.818604,198.257126 992.532593,202.974289   C989.278564,207.645538 983.934631,208.485489 978.437134,205.163727   C977.156250,204.389786 975.963928,203.464249 974.661865,202.731033   C965.546265,197.597717 957.408203,199.086151 951.677124,207.654221   C948.379700,212.583908 945.633606,218.019775 943.508423,223.561096   C940.890198,230.387863 940.725403,237.500427 946.330505,243.182831   C952.225464,249.159012 959.781860,250.423691 967.600159,248.377274   C972.201233,247.172958 976.469421,244.689636 980.878784,242.762054   C986.734192,240.202377 991.694214,241.604965 994.574280,246.657028   C997.147461,251.170807 996.069458,255.308578 990.606812,258.936737   C975.427429,269.018433 959.394958,272.750305 941.716064,264.381927  z"/>
<path fill="#ff4651" opacity="1.000000" stroke="none" d=" M277.300629,75.423325   C266.855255,75.912392 256.390442,75.979355 245.535889,75.638290   C244.345612,69.271866 240.951385,64.757011 235.780136,62.474857   C224.898285,57.672516 213.693909,53.600975 202.211609,49.067516   C200.119339,54.593533 198.307892,59.377857 196.135010,64.127777   C192.336472,63.050007 188.944702,61.340279 185.452774,61.102757   C178.300964,60.616287 171.095413,60.919994 163.911987,60.898346   C169.424530,45.613731 174.937088,30.329117 180.615723,14.583979   C184.932343,16.157703 188.789230,17.557043 192.641357,18.969376   C209.928528,25.307449 227.331924,31.352858 244.440887,38.140301   C250.984116,40.736118 257.257324,44.485043 262.934631,48.681164   C271.607391,55.091209 276.364441,64.119232 277.300629,75.423325  z"/>
<path fill="#ffffff" opacity="1.000000" stroke="none" d=" M868.603271,226.101562   C868.618774,236.904007 868.692444,247.221725 868.628784,257.538605   C868.581604,265.183319 864.521118,269.357361 857.487366,269.242126   C851.026001,269.136261 847.644531,265.238617 847.655640,257.531525   C847.686279,236.232025 847.723206,214.931778 847.940979,193.633698   C848.030945,184.832199 854.642395,179.927902 862.214783,183.232956   C864.958801,184.430588 866.892273,187.485168 869.848267,190.317886   C870.213989,190.093521 871.547974,189.268005 872.888733,188.453705   C881.191956,183.410568 890.180115,180.835770 899.916138,181.016418   C907.159546,181.150833 912.386963,184.477142 913.740723,191.560287   C914.936279,197.815369 915.095032,204.445923 914.537354,210.807785   C914.004028,216.891907 909.508301,219.561371 903.021179,219.154587   C897.413452,218.802933 894.899658,216.074753 894.354675,209.654205   C894.131531,207.026321 894.018250,204.389114 893.855835,201.769669   C880.233337,202.164169 868.586060,213.300003 868.603271,226.101562  z"/>
<path fill="#fd444f" opacity="1.000000" stroke="none" d=" M163.518005,60.954868   C171.095413,60.919994 178.300964,60.616287 185.452774,61.102757   C188.944702,61.340279 192.336472,63.050007 196.337357,64.411247   C200.610123,68.445663 204.319122,72.162193 208.028107,75.878731   C182.017670,75.935524 156.007248,75.992325 129.545303,75.964478   C137.301208,68.468063 147.170319,64.517731 157.781891,62.122215   C159.555801,61.721764 161.342972,61.380177 163.518005,60.954868  z"/>
<path fill="#ff4651" opacity="1.000000" stroke="none" d=" M170.505493,119.678268   C168.554245,119.460915 166.607956,119.133644 164.650879,119.045143   C156.013535,118.654594 156.012039,118.679504 156.012527,109.778725   C156.012894,103.310516 156.101730,96.840637 155.978516,90.374794   C155.917282,87.161484 157.230743,85.925797 160.414825,85.982048   C167.378418,86.105064 174.347443,86.110817 181.310593,85.975784   C184.133621,85.921036 185.088577,86.983871 185.037903,89.756050   C184.907623,96.885300 184.993393,104.018494 184.628220,111.723289   C179.677567,114.757065 175.091522,117.217667 170.505493,119.678268  z"/>
<path fill="#f5f5f5" opacity="1.000000" stroke="none" d=" M301.098572,86.405807   C300.129791,96.698723 298.870209,106.760750 297.376373,116.787888   C297.220184,117.836426 295.704895,119.461121 294.776337,119.491814   C287.835022,119.721245 280.882660,119.616570 273.361450,119.616570   C273.553589,108.754692 271.908112,98.271568 276.134827,88.275108   C276.583374,87.214211 278.513092,86.193535 279.780548,86.162270   C286.762939,85.990044 293.753082,86.131226 301.098572,86.405807  z"/>
<path fill="#fbfafb" opacity="1.000000" stroke="none" d=" M208.491760,75.946106   C204.319122,72.162193 200.610123,68.445663 196.698792,64.445648   C198.307892,59.377857 200.119339,54.593533 202.211609,49.067516   C213.693909,53.600975 224.898285,57.672516 235.780136,62.474857   C240.951385,64.757011 244.345612,69.271866 245.066986,75.611938   C232.976990,76.000244 220.966202,76.006866 208.491760,75.946106  z"/>
<path fill="#ff4651" opacity="1.000000" stroke="none" d=" M243.773438,86.124481   C248.766403,86.090324 253.766403,86.205017 258.749786,85.968834   C261.982605,85.815598 263.169861,86.892303 263.073730,90.209747   C262.871338,97.195976 263.016815,104.192276 262.720276,111.853210   C257.830994,114.889816 253.241028,117.257668 248.651077,119.625534   C244.875092,119.409401 241.062943,119.418335 237.348114,118.821556   C236.399475,118.669159 235.152405,116.632278 235.084045,115.403290   C234.816315,110.590065 234.965439,105.753670 235.229095,100.235527   C239.880310,96.072624 242.955246,91.794289 243.773438,86.124481  z"/>
<path fill="#f7f6f6" opacity="1.000000" stroke="none" d=" M238.295761,129.148636   C246.409271,129.148636 254.522781,129.148636 263.018311,129.148636   C263.018311,140.518372 263.018311,151.384811 263.018311,162.860840   C256.463654,162.860840 249.867950,162.860840 242.770416,162.384979   C242.712296,150.774551 242.110214,139.766815 238.295761,129.148636  z"/>
<path fill="#F9424C" opacity="1.000000" stroke="none" d=" M218.670776,119.710938   C210.946304,119.710938 203.221817,119.710938 195.319580,119.710938   C195.319580,108.113503 195.319580,97.415833 195.319580,86.092194   C201.121582,86.092194 206.691116,86.092194 212.792007,86.545883   C214.367432,91.692482 215.411484,96.385384 216.436859,101.465073   C217.169037,107.804878 217.919907,113.757912 218.670776,119.710938  z"/>
<path fill="#000000" opacity="1.000000" stroke="none" d=" M273.408020,161.475540   C273.324982,150.598328 273.324982,140.175018 273.324982,129.502106   C280.934448,129.502106 287.974030,129.502106 295.472107,129.502106   C295.269073,131.375687 295.137543,132.979233 294.915985,134.570236   C293.615631,143.907852 292.294281,153.242523 290.869934,163.360245   C284.774078,162.858368 279.132568,162.393906 273.408020,161.475540  z"/>
<path fill="#f8434d" opacity="1.000000" stroke="none" d=" M201.591019,129.521378   C207.242310,129.431686 212.900787,129.162018 218.539459,129.387726   C219.835541,129.439606 222.044998,131.081589 222.169647,132.180588   C223.302200,142.165695 224.065475,152.192673 224.993240,162.856079   C217.183472,162.856079 210.739197,162.856079 203.870895,162.323151   C206.050278,150.848648 203.625732,140.196228 201.591019,129.521378  z"/>
<path fill="#f8434d" opacity="1.000000" stroke="none" d=" M109.038879,278.881836   C116.883110,274.333801 124.564323,275.791168 129.040909,282.394012   C133.299530,288.675354 131.788437,297.514008 125.695778,301.960388   C120.043785,306.085175 111.118431,305.105316 106.694824,299.874420   C101.275696,293.466309 102.059738,285.493530 109.038879,278.881836  z"/>
<path fill="#f5f5f5" opacity="1.000000" stroke="none" d=" M106.938202,102.001038   C106.938194,107.959549 106.938194,113.419586 106.938194,119.614174   C103.210823,119.614174 99.780426,119.742844 96.371765,119.527466   C95.472961,119.470680 94.176819,118.532272 93.849434,117.692261   C89.827484,107.372391 85.951775,96.995529 81.900269,86.268021   C90.379425,86.268021 98.279480,86.268021 106.938202,86.268021   C106.938202,91.363388 106.938202,96.432976 106.938202,102.001038  z"/>
<path fill="#f7434e" opacity="1.000000" stroke="none" d=" M250.834213,278.664368   C258.309265,274.426971 265.288849,275.311523 270.113495,280.838593   C274.249084,285.576294 274.502106,293.322144 270.688934,298.454193   C266.718842,303.797455 259.443115,305.619965 253.208557,302.832886   C243.695679,298.580261 242.327179,286.353973 250.834213,278.664368  z"/>
<path fill="#f6f6f6" opacity="1.000000" stroke="none" d=" M144.907776,86.317657   C145.191025,86.454308 145.721817,86.590256 145.722198,86.727707   C145.750153,96.584579 147.740555,106.602608 143.698029,116.133347   C143.105606,117.530090 141.463272,119.410278 140.241684,119.459724   C132.665726,119.766418 125.071205,119.614044 116.892471,119.614044   C116.892471,113.274811 116.892471,107.375603 117.292892,101.174591   C118.942352,101.946152 120.247749,102.961159 121.430473,104.103210   C126.081177,108.593971 125.949394,108.227844 129.797516,103.211418   C134.382889,97.233902 139.832550,91.919403 144.907776,86.317657  z"/>
<path fill="#f8434d" opacity="1.000000" stroke="none" d=" M184.887985,131.840530   C184.887985,141.956436 184.887985,152.072342 184.887985,162.892822   C177.249008,162.892822 169.663269,162.892822 161.570023,162.531464   C163.833069,154.117432 166.603622,146.064758 169.669708,137.835663   C174.939499,135.719681 179.913742,133.780106 184.887985,131.840530  z"/>
<path fill="#f7434e" opacity="1.000000" stroke="none" d=" M137.272751,134.314651   C139.841537,132.892548 142.410339,131.470444 145.801651,129.592972   C146.096313,141.163635 147.280060,151.959869 141.819122,162.870621   C135.923279,162.870621 129.329254,162.870621 122.278076,162.369965   C122.296913,154.955093 124.418968,148.604782 128.834930,143.231262   C131.426682,140.077545 134.445847,137.275101 137.272751,134.314651  z"/>
<path fill="#FB444F" opacity="1.000000" stroke="none" d=" M122.706665,172.964752   C128.525635,172.878448 134.348709,172.897537 140.162231,172.671310   C144.529526,172.501343 146.059296,174.753998 146.039093,178.715561   C145.997482,186.872833 145.982620,195.030243 145.507217,203.598724   C131.637207,197.959717 125.230721,186.859818 122.706665,172.964752  z"/>
<path fill="#0f0000" opacity="1.000000" stroke="none" d=" M156.277695,187.846542   C154.782471,172.630981 154.782471,172.630981 169.455902,172.630981   C174.421661,172.630981 179.387421,172.630981 185.050674,172.630981   C185.050674,176.845108 185.050674,180.749420 184.536926,185.167664   C175.005493,189.361359 165.844360,191.202499 156.277695,187.846542  z"/>
<path fill="#f8434d" opacity="1.000000" stroke="none" d=" M156.160095,188.310242   C165.844360,191.202499 175.005493,189.361359 184.400970,185.583359   C184.778778,190.589233 184.778778,195.693359 184.778778,201.317184   C175.312546,202.219910 165.978836,203.109985 156.042511,204.057541   C156.042511,198.628967 156.042511,193.701447 156.160095,188.310242  z"/>
<path fill="#ffffff" opacity="1.000000" stroke="none" d=" M137.403717,133.841949   C134.445847,137.275101 131.426682,140.077545 128.834930,143.231262   C124.418968,148.604782 122.296913,154.955093 121.804848,162.275787   C120.335541,162.749817 118.882332,162.817413 117.128250,162.898987   C117.128250,151.662537 117.128250,140.775696 117.128250,129.565186   C124.156227,129.565186 131.050247,129.565186 138.392654,129.565186   C138.083862,130.934311 137.809265,132.151779 137.403717,133.841949  z"/>
<path fill="#f7434e" opacity="1.000000" stroke="none" d=" M197.700714,172.332108   C204.942734,172.452942 212.188217,172.754623 219.425339,172.617050   C222.954651,172.549957 224.608765,173.350479 224.286179,177.241928   C223.960541,181.170502 224.181442,185.144379 223.735718,189.490845   C220.165497,186.685287 217.020248,183.489471 213.880692,180.288086   C212.830322,179.217026 211.794510,178.131683 210.423553,177.133362   C209.259079,178.546875 208.532669,179.965683 207.567932,181.197906   C203.554428,186.324173 199.469131,191.394226 195.410156,196.484909   C195.263306,190.312759 195.116455,184.140594 195.009583,177.190735   C195.933273,175.052734 196.816986,173.692429 197.700714,172.332108  z"/>
<path fill="#FB444F" opacity="1.000000" stroke="none" d=" M144.463745,86.203873   C139.832550,91.919403 134.382889,97.233902 129.797516,103.211418   C125.949394,108.227844 126.081177,108.593971 121.430473,104.103210   C120.247749,102.961159 118.942352,101.946152 117.388016,100.682114   C116.267906,86.082878 116.267906,86.082298 130.167816,86.083214   C134.785110,86.083519 139.402405,86.087677 144.463745,86.203873  z"/>
<path fill="#ffffff" opacity="1.000000" stroke="none" d=" M122.291359,172.842743   C125.230721,186.859818 131.637207,197.959717 145.397705,204.063324   C140.294250,205.062546 134.860031,206.071671 129.395172,206.871307   C128.735718,206.967789 127.491837,206.091644 127.225479,205.395798   C123.716393,196.228333 120.277161,187.032623 116.984818,177.785446   C116.517975,176.474228 116.920227,174.853561 116.920227,172.720749   C118.723755,172.720749 120.299904,172.720749 122.291359,172.842743  z"/>
<path fill="#f8434d" opacity="1.000000" stroke="none" d=" M248.384079,172.816101   C253.154633,172.816101 257.925201,172.816101 263.046692,172.816101   C263.046692,179.713303 263.046692,186.403244 263.046692,193.717453   C255.979889,194.244080 248.934570,194.769089 241.567245,194.737946   C241.234009,193.401398 241.222794,192.621033 241.493118,191.649811   C243.603912,190.732910 245.419937,189.971115 247.265121,189.288055   C251.468842,187.731873 253.478134,185.431488 251.020111,180.755707   C249.739838,178.320297 249.237701,175.475800 248.384079,172.816101  z"/>
<path fill="#000000" opacity="1.000000" stroke="none" d=" M276.102875,192.221375   C274.869507,191.663162 273.448822,191.081619 273.430298,190.458435   C273.258789,184.682281 273.328979,178.898941 273.328979,172.860184   C278.791199,172.860184 283.725403,172.860184 289.448914,172.860184   C288.633636,178.850815 287.840240,184.680740 286.979187,191.007721   C283.430847,191.406738 279.998413,191.792725 276.102875,192.221375  z"/>
<path fill="#ffffff" opacity="1.000000" stroke="none" d=" M201.195923,129.418930   C203.625732,140.196228 206.050278,150.848648 203.367645,162.217346   C200.830505,162.759125 198.372589,162.873764 195.473969,163.008972   C195.473969,151.736374 195.473969,140.790527 195.473969,129.316483   C197.288284,129.316483 199.044556,129.316483 201.195923,129.418930  z"/>
<path fill="#EE4751" opacity="1.000000" stroke="none" d=" M248.110840,172.656494   C249.237701,175.475800 249.739838,178.320297 251.020111,180.755707   C253.478134,185.431488 251.468842,187.731873 247.265121,189.288055   C245.419937,189.971115 243.603912,190.732910 241.045425,191.634735   C238.530090,191.937119 236.743973,192.063751 234.957870,192.190384   C234.584351,186.394287 234.210846,180.598190 233.832230,174.722916   C238.983292,173.904205 243.410446,173.200562 248.110840,172.656494  z"/>
<path fill="#ee414b" opacity="1.000000" stroke="none" d=" M184.992310,131.449997   C179.913742,133.780106 174.939499,135.719681 169.275406,137.873428   C164.425491,139.680130 160.265427,141.272659 156.105347,142.865204   C156.105347,138.562027 156.105347,134.258865 156.105347,129.299637   C165.465134,129.299637 174.559204,129.272476 183.651840,129.374634   C184.139694,129.380096 184.615326,130.472855 184.992310,131.449997  z"/>
<path fill="#ff4651" opacity="1.000000" stroke="none" d=" M237.881836,129.116516   C242.110214,139.766815 242.712296,150.774551 242.326447,162.362503   C234.978256,163.156311 234.977173,163.156311 234.976089,156.048920   C234.974976,148.617432 234.834793,141.181076 235.089584,133.758316   C235.143936,132.174988 236.637451,130.641083 237.881836,129.116516  z"/>
<path fill="#ffffff" opacity="1.000000" stroke="none" d=" M156.070892,143.341858   C160.265427,141.272659 164.425491,139.680130 168.979874,138.049835   C166.603622,146.064758 163.833069,154.117432 161.111572,162.542984   C157.346069,163.482010 155.797821,161.905426 155.982529,158.008926   C156.206268,153.288544 156.036148,148.549500 156.070892,143.341858  z"/>
<path fill="#ffffff" opacity="1.000000" stroke="none" d=" M210.752045,177.052856   C211.794510,178.131683 212.830322,179.217026 213.880692,180.288086   C217.020248,183.489471 220.165497,186.685287 223.651566,189.954605   C223.946411,197.099762 223.942169,197.067245 216.957977,197.976929   C215.203964,198.205399 213.486694,198.715698 211.372620,198.611542   C210.912476,191.102036 210.832260,184.077454 210.752045,177.052856  z"/>
<path fill="#ffffff" opacity="1.000000" stroke="none" d=" M210.423553,177.133362   C210.832260,184.077454 210.912476,191.102036 210.960144,198.533386   C206.678986,199.309174 202.425827,199.633408 198.183670,200.065765   C195.995834,200.288742 194.549088,199.928085 195.290375,196.865952   C199.469131,191.394226 203.554428,186.324173 207.567932,181.197906   C208.532669,179.965683 209.259079,178.546875 210.423553,177.133362  z"/>
<path fill="#f6f6f6" opacity="1.000000" stroke="none" d=" M216.455551,101.078285   C215.411484,96.385384 214.367432,91.692482 213.267334,86.625732   C216.760437,86.251877 220.309616,86.251877 224.253021,86.251877   C224.253021,91.472977 224.253021,96.343636 223.739563,101.673981   C220.969254,101.781860 218.712402,101.430077 216.455551,101.078285  z"/>
<path fill="#ffffff" opacity="1.000000" stroke="none" d=" M107.036278,143.675385   C107.036270,145.754440 107.036270,147.382965 107.036270,149.011475   C106.626999,149.141296 106.217728,149.271118 105.808456,149.400940   C103.359215,142.979019 100.909973,136.557098 98.248718,129.579254   C101.290359,129.579254 103.783112,129.579254 107.036285,129.579254   C107.036285,134.099808 107.036285,138.662323 107.036278,143.675385  z"/>
<path fill="#ee414b" opacity="1.000000" stroke="none" d=" M216.436859,101.465073   C218.712402,101.430077 220.969254,101.781860 223.633423,102.140854   C224.013321,106.072296 223.712677,110.019348 224.038010,113.914116   C224.342361,117.557632 223.074982,119.459282 219.077179,119.781662   C217.919907,113.757912 217.169037,107.804878 216.436859,101.465073  z"/>
<path fill="#ffffff" opacity="1.000000" stroke="none" d=" M243.332245,86.093674   C242.955246,91.794289 239.880310,96.072624 235.250061,99.766678   C234.578552,95.518555 234.155518,91.048943 233.683594,86.062866   C237.355637,86.062866 240.123352,86.062866 243.332245,86.093674  z"/>
<path fill="#ee414b" opacity="1.000000" stroke="none" d=" M170.932831,119.660049   C175.091522,117.217667 179.677567,114.757065 184.601318,112.197411   C184.939026,114.399490 184.939026,116.700623 184.939026,119.641838   C180.249817,119.641838 175.804993,119.641838 170.932831,119.660049  z"/>
<path fill="#ffffff" opacity="1.000000" stroke="none" d=" M249.071609,119.586212   C253.241028,117.257668 257.830994,114.889816 262.699066,112.330139   C263.205811,114.399963 263.434418,116.661606 263.726074,119.546906   C258.642365,119.546906 254.067245,119.546906 249.071609,119.586212  z"/>
<path fill="#ffffff" opacity="1.000000" stroke="none" d=" M234.959290,192.581879   C236.743973,192.063751 238.530090,191.937119 240.763885,191.825562   C241.222794,192.621033 241.234009,193.401398 241.136826,194.555038   C238.436356,196.044281 235.646271,197.774857 234.959290,192.581879  z"/>
<path fill="#ffffff" opacity="1.000000" stroke="none" d=" M197.447601,172.158844   C196.816986,173.692429 195.933273,175.052734 194.900574,176.737183   C193.517212,174.383392 193.430466,172.257828 197.447601,172.158844  z"/>
<path fill="#000000" opacity="1.000000" stroke="none" d=" M1035.394775,216.423920   C1032.597656,217.621262 1030.147339,218.643402 1027.645020,219.687195   C1027.522339,204.767929 1044.193115,196.449356 1061.708862,204.119583   C1052.338501,208.496368 1044.039917,212.372543 1035.394775,216.423920  z"/>
<path fill="#000000" opacity="1.000000" stroke="none" d=" M778.519897,218.973633   C774.175354,220.113113 776.420044,217.543213 776.774658,216.526489   C781.269348,203.639679 791.556946,198.248337 804.769287,201.791580   C806.202454,202.175903 807.595154,202.710770 809.949402,203.486404   C799.983765,210.522430 789.148743,214.096344 778.519897,218.973633  z"/>
<path fill="#0f0000" opacity="1.000000" stroke="none" d=" M440.097412,230.740692   C439.992798,223.486877 440.965576,216.704010 445.409729,211.474411   C448.254639,208.126740 452.316467,205.134048 456.431488,203.698257   C463.216614,201.330780 469.059174,204.761322 471.438660,211.591919   C474.069855,219.144989 474.426270,226.984589 472.412323,234.717880   C470.192322,243.242432 462.328857,248.716644 454.170471,247.937820   C446.272675,247.183868 441.442932,241.426788 440.097412,230.740692  z"/>
</svg>